<svg viewBox="0 0 237 126" fill="none" xmlns="http://www.w3.org/2000/svg">
<path d="M183.976 100.746H161.214C155.054 100.746 153.983 94.0295 155.054 91.343C155.59 89.9997 156.929 88.1191 158 86.7758C162.285 89.1937 167.373 90.537 172.729 90.537C189.868 90.537 203.526 76.5669 203.526 59.6415C203.526 50.5072 199.509 42.4475 193.349 36.537L194.153 35.731C195.759 34.1191 198.17 33.0445 200.58 33.3131L204.329 33.5818V18.8057H197.902C190.404 18.8057 184.244 23.3728 181.566 29.8206C178.888 29.0146 175.943 28.4773 172.997 28.4773C155.858 28.4773 142.2 42.4475 142.2 59.3728C142.2 66.0892 144.343 72.537 148.092 77.6415C147.556 78.1788 146.753 78.7161 146.217 78.9848C145.949 79.2534 145.682 79.5221 145.414 79.7907C139.254 85.7012 136.309 93.2236 137.915 101.821C138.719 106.388 142.736 111.224 146.753 113.91C149.431 115.791 152.912 116.597 156.393 116.597L182.102 115.522C185.048 115.522 187.726 116.865 189.332 119.552L192.546 125.731L208.346 120.358L205.668 114.447C201.651 106.119 193.349 100.746 183.976 100.746ZM172.997 44.8654C181.031 44.8654 187.726 51.5818 187.726 59.6415C187.726 67.7012 181.031 74.4176 172.997 74.4176C164.963 74.4176 158.268 67.7012 158.268 59.6415C158.268 51.3131 164.695 44.8654 172.997 44.8654Z" fill="#191919"/>
<path d="M94.2644 28.209C78.1966 29.0149 64.8068 41.9105 63.7356 58.0299C62.3966 77.1045 77.3932 92.9552 95.8712 92.9552C102.03 92.9552 107.654 89.4627 112.475 86.5075V92.1493H128.275V59.3732C127.471 41.3732 112.475 27.403 94.2644 28.209ZM95.8712 77.9105C86.2305 77.9105 78.7322 70.1194 78.7322 60.7164C78.7322 51.0448 86.4983 43.5224 95.8712 43.5224C105.512 43.5224 113.01 51.3135 113.01 60.7164C113.278 70.1194 105.512 77.9105 95.8712 77.9105Z" fill="#191919"/>
<path d="M64.0034 29.2835H41.7763L22.4949 48.6268L15.8 55.3432V18.2686H0V92.1491H15.8V64.4775L22.4949 71.1939V70.9253L43.3831 92.1491H65.6102L31.6 59.9103L64.0034 29.2835Z" fill="#191919"/>
<path d="M218.789 86.5071V91.8802H234.589V29.2832H218.789V86.5071Z" fill="#191919"/>
<path d="M226.557 20.4179C232.177 20.4179 236.733 15.8472 236.733 10.209C236.733 4.5707 232.177 0 226.557 0C220.937 0 216.381 4.5707 216.381 10.209C216.381 15.8472 220.937 20.4179 226.557 20.4179Z" fill="#191919"/>
</svg>