<?xml version="1.0" encoding="UTF-8" standalone="no"?>
<!-- Created with Inkscape (http://www.inkscape.org/) -->

<svg
   width="800px"
   height="800px"
   viewBox="0 0 800 800"
   version="1.1"
   id="SVGRoot"
   sodipodi:docname="udn.svg"
   inkscape:version="1.2.2 (b0a8486541, 2022-12-01)"
   xmlns:inkscape="http://www.inkscape.org/namespaces/inkscape"
   xmlns:sodipodi="http://sodipodi.sourceforge.net/DTD/sodipodi-0.dtd"
   xmlns="http://www.w3.org/2000/svg"
   xmlns:svg="http://www.w3.org/2000/svg">
  <sodipodi:namedview
     id="namedview2008"
     pagecolor="#ffffff"
     bordercolor="#999999"
     borderopacity="1"
     inkscape:showpageshadow="0"
     inkscape:pageopacity="0"
     inkscape:pagecheckerboard="0"
     inkscape:deskcolor="#d1d1d1"
     inkscape:document-units="px"
     showgrid="false"
     inkscape:zoom="0.67972082"
     inkscape:cx="268.49259"
     inkscape:cy="560.52425"
     inkscape:window-width="1920"
     inkscape:window-height="1004"
     inkscape:window-x="0"
     inkscape:window-y="0"
     inkscape:window-maximized="1"
     inkscape:current-layer="layer1" />
  <defs
     id="defs2003" />
  <g
     inkscape:label="Layer 1"
     inkscape:groupmode="layer"
     id="layer1">
    <path
       d="m 140.91626,206.19928 c 0,0 20.64929,19.77381 24.78197,39.54761 v 55.37229 c 0,15.81998 -8.26066,43.50613 -8.26066,63.27993 0,23.73232 4.12798,31.64938 8.26066,43.51083 4.13268,11.86146 4.12798,11.86617 4.12798,31.63997 0,19.7738 -4.12798,94.9246 -4.12798,94.9246 l -4.12797,59.32611 12.38863,27.68614 16.52131,-15.81998 c 0,0 4.13269,11.86617 12.38864,23.73233 8.26065,11.86616 41.30328,23.73233 41.30328,23.73233 l 41.29858,11.86616 132.16581,-51.41377 c 0,0 16.52131,11.86617 28.91465,15.81528 12.38864,3.95853 53.68722,23.73233 74.34121,27.68615 20.64929,3.95852 33.04263,7.91234 49.55924,7.91234 16.51661,0 33.04263,-3.95382 49.55923,-11.86616 16.52132,-3.95382 37.17061,-11.86617 37.17061,-11.86617 l 8.26066,-47.46465 -99.12318,-63.27993 -20.64929,15.81057 c 0,0 -8.26066,-67.23375 -12.38864,-102.82753 -4.12797,-35.59849 -12.38863,-83.05844 -12.38863,-83.05844 l 12.38863,-7.91235 c 0,0 -8.26065,-63.27992 -12.38863,-79.10461 0,-15.81999 8.26066,-55.3723 8.26066,-63.27993 0,-7.90764 4.12797,-31.63997 4.12797,-31.63997 v -19.7738 l -28.90994,-11.86616 -33.04263,11.86616 -57.8246,-23.73233 -53.69192,27.68615 4.12797,31.64467 h 90.86253 l 37.1706,23.73233 v 23.73233 l -12.38863,11.86616 c 0,0 -4.13268,39.5476 -4.13268,67.23845 -4.12798,27.68615 -4.12798,59.32611 -8.25595,90.96608 -4.13269,39.5476 -12.39334,75.14609 -24.78198,106.79076 0,0 -49.55923,27.68144 -74.3412,39.54761 C 330.90196,570.073 297.85933,570.073 297.85933,570.073 l -57.81989,-23.73233 c -8.25595,-51.41376 -16.52131,-94.91989 -20.64929,-130.51838 -4.13268,-11.86617 -4.13268,-15.81998 0,-31.63997 0,-11.86616 8.25595,-55.37229 8.25595,-55.37229 l -12.38863,-11.86616 c 0,0 8.26066,-47.46466 12.38863,-63.27993 4.13268,-15.81998 4.13268,-31.64467 8.26066,-43.50613 0,-11.86616 4.12797,-23.73233 4.12797,-23.73233 l -8.25595,-27.68144 c 0,0 -33.04263,-11.86616 -49.55923,-15.81998 -12.39334,-3.95382 -33.04263,-7.91234 -33.04263,-7.91234 h -33.04263 c -12.38863,0 -33.042631,3.95382 -33.042631,3.95382 l -24.781972,23.73232 c 0,0 4.132682,11.86617 8.260657,15.81999 l 4.127976,7.90763 12.388632,3.95382 16.521315,19.77851 c 0,0 16.521313,0 28.909943,-3.95382 0.009,3.94441 12.39805,-0.005 12.39805,-0.005"
       style="fill:#000000;stroke-width:4.70693"
       id="path360" />
    <path
       d="m 434.56074,294.75706 h 175.50272 c 76.77615,0 131.62696,63.02594 131.62696,126.05193 v 10.50012 c 0,73.53863 -65.81348,126.05194 -131.62696,126.05194 H 401.66021 V 294.75706 Z M 478.43641,494.3351 H 588.1256 c 32.90053,0 65.81348,-31.51297 65.81348,-63.02599 v -10.50012 c 0,-31.51301 -32.91295,-63.02599 -65.81348,-63.02599 L 478.43641,347.28288 Z"
       style="fill:#efff00;stroke-width:12.5002"
       id="path464" />
    <rect
       style="fill:#241f1c;fill-opacity:0;stroke:#000000;stroke-width:3.1731;stroke-opacity:0"
       id="rect1614"
       width="765.69348"
       height="800.00024"
       x="17.153185"
       y="1.1368684e-13" />
  </g>
</svg>
