<?xml version="1.0" encoding="UTF-8" standalone="no"?>
<!-- Created with Inkscape (http://www.inkscape.org/) -->

<svg
   width="800px"
   height="800px"
   viewBox="0 0 800 800"
   version="1.1"
   id="SVGRoot"
   sodipodi:docname="bingn.svg"
   inkscape:version="1.2.2 (b0a8486541, 2022-12-01)"
   xmlns:inkscape="http://www.inkscape.org/namespaces/inkscape"
   xmlns:sodipodi="http://sodipodi.sourceforge.net/DTD/sodipodi-0.dtd"
   xmlns="http://www.w3.org/2000/svg"
   xmlns:svg="http://www.w3.org/2000/svg">
  <sodipodi:namedview
     id="namedview263"
     pagecolor="#ffffff"
     bordercolor="#999999"
     borderopacity="1"
     inkscape:showpageshadow="0"
     inkscape:pageopacity="0"
     inkscape:pagecheckerboard="0"
     inkscape:deskcolor="#d1d1d1"
     inkscape:document-units="px"
     showgrid="false"
     inkscape:zoom="0.4806352"
     inkscape:cx="578.40125"
     inkscape:cy="503.50037"
     inkscape:window-width="1920"
     inkscape:window-height="1004"
     inkscape:window-x="0"
     inkscape:window-y="0"
     inkscape:window-maximized="1"
     inkscape:current-layer="layer1" />
  <defs
     id="defs258">
    <radialGradient
       id="paint0_radial_2_35"
       cx="0"
       cy="0"
       r="1"
       gradientUnits="userSpaceOnUse"
       gradientTransform="matrix(-263.16907,-303.71427,218.53588,-189.36181,691.91247,558.61367)">
      <stop
         stop-color="#00CACC"
         id="stop10" />
      <stop
         offset="1"
         stop-color="#048FCE"
         id="stop12" />
    </radialGradient>
    <radialGradient
       id="paint1_radial_2_35"
       cx="0"
       cy="0"
       r="1"
       gradientUnits="userSpaceOnUse"
       gradientTransform="matrix(399.54553,-171.20747,285.32283,665.85569,262.51115,705.12618)">
      <stop
         stop-color="#00BBEC"
         id="stop15" />
      <stop
         offset="1"
         stop-color="#2756A9"
         id="stop17" />
    </radialGradient>
    <linearGradient
       id="paint2_linear_2_35"
       x1="118.409"
       y1="0"
       x2="118.409"
       y2="884.39899"
       gradientUnits="userSpaceOnUse"
       gradientTransform="matrix(0.75958867,0,0,0.75958867,195.04577,9.999999)">
      <stop
         stop-color="#00BBEC"
         id="stop20" />
      <stop
         offset="1"
         stop-color="#2756A9"
         id="stop22" />
    </linearGradient>
  </defs>
  <g
     inkscape:label="Layer 1"
     inkscape:groupmode="layer"
     id="layer1">
    <path
       fill-rule="evenodd"
       clip-rule="evenodd"
       d="m 455.16236,255.28942 c -14.33648,1.66578 -25.27,13.30876 -26.28633,27.99161 -0.43829,6.32661 -0.3008,6.75578 14.03947,43.65735 32.62586,83.95734 40.53014,104.16392 41.85942,107.00782 3.22066,6.88719 7.74933,13.36648 13.4075,19.18189 4.34181,4.46259 7.20546,6.86213 12.0486,10.09722 8.51194,5.68476 12.73602,7.25635 45.85789,17.06339 32.26429,9.55335 49.8913,15.90275 65.08079,23.44168 19.67791,9.76678 33.40748,20.87654 42.09185,34.05843 6.23091,9.4584 11.74932,26.41926 14.15038,43.49253 0.93885,6.67374 0.94493,21.42648 0.0114,27.45988 -2.02582,13.09456 -6.07216,24.06758 -12.26204,33.25024 -3.29207,4.88341 -2.1466,4.06609 2.63956,-1.8853 13.54499,-16.84083 27.34292,-45.62392 34.38355,-71.72492 8.52031,-31.58901 9.67944,-65.50997 3.33536,-97.6155 -12.3547,-62.52098 -51.82369,-116.47685 -107.41191,-146.83609 -3.49259,-1.90808 -16.79602,-8.88111 -34.8317,-18.25823 -2.7368,-1.42347 -6.46865,-3.37182 -8.29318,-4.32965 -1.82454,-0.95861 -5.5564,-2.90695 -8.29319,-4.32966 -2.7368,-1.42271 -10.61526,-5.52753 -17.50777,-9.12114 -6.89251,-3.59438 -14.6046,-7.61565 -17.13859,-8.93657 -7.72425,-4.02733 -12.90693,-6.73299 -16.77096,-8.75578 -17.87161,-9.35585 -25.43636,-13.13784 -27.59282,-13.79412 -2.26206,-0.6882 -8.00834,-1.57159 -9.45005,-1.4531 -0.30383,0.0251 -1.684,0.17699 -3.06721,0.33802 z"
       fill="url(#paint0_radial_2_35)"
       id="path2"
       style="fill:url(#paint0_radial_2_35);stroke-width:0.759589" />
    <path
       d="m 494.12394,568.71091 c -0.99051,0.5864 -2.38055,1.43562 -3.09,1.88605 -0.71022,0.4512 -2.28561,1.43031 -3.50171,2.17698 -4.46411,2.73984 -16.33648,10.05544 -26.53851,16.35319 -6.7049,4.139 -7.69996,4.75579 -16.21722,10.04176 -3.04139,1.88683 -6.27572,3.87543 -7.18799,4.41929 -0.91226,0.54387 -4.80972,2.94417 -8.66159,5.33383 -3.85187,2.3889 -10.56892,6.53626 -14.92744,9.21533 -4.35852,2.67832 -12.15417,7.48727 -17.32318,10.6859 -5.16976,3.19786 -11.97036,7.39155 -15.11201,9.31863 -3.14242,1.92632 -6.04481,3.78731 -6.45043,4.1352 -0.60235,0.51653 -28.54914,17.82831 -42.57191,26.3714 -10.65019,6.48765 -22.97072,10.82718 -35.58292,12.5317 -5.87163,0.79301 -16.98289,0.79604 -22.8378,0.005 -15.87609,-2.1442 -30.50159,-8.06521 -43.0272,-17.41726 -4.91325,-3.66882 -14.16322,-12.91149 -17.69941,-17.68626 -8.33329,-11.25026 -13.72425,-23.31786 -16.51628,-36.97222 -0.64244,-3.14241 -1.25022,-5.79566 -1.35011,-5.89744 -0.26096,-0.26359 0.21044,4.48309 1.06076,10.68892 0.88424,6.45423 2.76847,15.78958 4.7979,23.77361 15.70465,61.78895 60.393,112.04485 120.88999,135.95518 17.4204,6.88189 34.99956,11.21913 54.12677,13.34598 7.18722,0.80516 27.53128,1.12419 35.03223,0.5545 34.3995,-2.60539 64.35159,-12.73071 95.07847,-32.1496 2.73679,-1.72957 7.87845,-4.9715 11.42573,-7.20545 3.54804,-2.23319 8.02581,-5.07254 9.95213,-6.30839 1.92556,-1.2366 4.24763,-2.69729 5.15989,-3.24572 0.91227,-0.54918 2.7368,-1.6954 4.05469,-2.54842 1.31789,-0.85225 6.95707,-4.41928 12.53169,-7.9263 l 22.2924,-14.0805 7.65439,-4.83478 0.27573,-0.17395 0.84314,-0.53247 0.40106,-0.25371 5.63538,-3.55943 19.47586,-12.30154 c 24.81576,-15.5936 32.21568,-21.06795 43.74472,-32.36151 4.80668,-4.70717 12.05315,-12.74362 12.41319,-13.76375 0.0729,-0.20737 1.36118,-2.19445 2.86214,-4.4155 6.10101,-9.0277 10.16937,-20.08655 12.18684,-33.12794 0.93353,-6.0334 0.92745,-20.78614 -0.0114,-27.45988 -1.81465,-12.90313 -5.9377,-27.53888 -10.38282,-36.85828 -7.28977,-15.28141 -22.8188,-29.16669 -45.12716,-40.34935 -6.1595,-3.08773 -12.5203,-5.9134 -13.23052,-5.87618 -0.33649,0.0175 -21.09606,12.7064 -46.1321,28.19897 -25.03604,15.49257 -46.76484,28.93957 -48.28478,29.88298 -1.52069,0.94417 -4.13292,2.54006 -5.80553,3.54576 z"
       fill="url(#paint1_radial_2_35)"
       id="path4"
       style="fill:url(#paint1_radial_2_35);stroke-width:0.759589" />
    <path
       d="m 195.15299,494.38744 0.10726,107.90336 1.39659,6.26585 c 4.36699,19.59056 11.93331,33.7151 25.08695,46.83396 6.18708,6.1709 10.91826,9.89136 17.62284,13.8587 14.18714,8.39573 29.45617,12.53777 46.18109,12.53017 17.51688,-0.008 32.66991,-4.37826 48.28478,-13.9225 2.63501,-1.61033 12.9601,-7.96733 22.94413,-14.12683 l 18.15266,-11.19861 V 514.50818 386.48482 l -0.006,-117.11794 c -0.004,-74.71922 -0.14078,-119.09363 -0.377,-122.57483 -1.4888,-21.87691 -10.63804,-41.98855 -26.02275,-57.200832 -4.72114,-4.668656 -8.75532,-7.786921 -20.77352,-16.05717 -5.9798,-4.11568 -16.92698,-11.655054 -24.32613,-16.75402 -7.39916,-5.099347 -19.5898,-13.49979 -27.09074,-18.668107 -7.50078,-5.167939 -18.19898,-12.541418 -23.77383,-16.385012 -11.61373,-8.007531 -12.52266,-8.564477 -16.0334,-9.820616 -4.56642,-1.633566 -9.40553,-2.233609 -14.00621,-1.73676 -13.40917,1.44817 -24.14343,11.129803 -26.93361,24.292335 -0.4342,2.047852 -0.51419,29.301363 -0.51972,177.221082 l -0.006,174.80187 h -0.0144 z"
       fill="url(#paint2_linear_2_35)"
       id="path6"
       style="fill:url(#paint2_linear_2_35);stroke-width:0.759589" />
  </g>
</svg>
